<svg width="70" height="70" viewBox="0 0 70 70" fill="none" xmlns="http://www.w3.org/2000/svg">
<path fill-rule="evenodd" clip-rule="evenodd" d="M0.63155 52.6749L57.1678 4.98894C58.0117 4.14968 59.3757 4.14968 60.2174 4.98894L69.3643 14.0879C70.2105 14.925 70.2105 16.2831 69.3643 17.1224L12.8259 64.8105C11.9842 65.6475 10.6199 65.6475 9.77629 64.8105L0.629301 55.7071C-0.210101 54.87 -0.210101 53.5119 0.63155 52.6749V52.6749Z" fill="#C0A04C"/>
<path fill-rule="evenodd" clip-rule="evenodd" d="M31.3537 38.3331L29.6879 39.7369L35.14 45.989L36.8038 44.5851L31.3537 38.3331Z" fill="#937B3B"/>
<path fill-rule="evenodd" clip-rule="evenodd" d="M39.2106 37.4044L37.5448 38.8084L40.1332 41.7753L41.7967 40.3736L39.2106 37.4044Z" fill="#937B3B"/>
<path fill-rule="evenodd" clip-rule="evenodd" d="M21.3608 46.754L19.6947 48.1603L25.1493 54.4144L26.8152 53.0127L21.3608 46.754Z" fill="#937B3B"/>
<path fill-rule="evenodd" clip-rule="evenodd" d="M68.2232 12.9545L67.5192 13.5474L69.8715 16.244C70.1033 15.5071 69.9524 14.6743 69.3644 14.0902L68.2232 12.9545V12.9545Z" fill="#937B3B"/>
<path fill-rule="evenodd" clip-rule="evenodd" d="M29.2177 45.8256L27.5541 47.2293L30.1445 50.2049L31.8084 48.7989L29.2177 45.8256Z" fill="#937B3B"/>
<path fill-rule="evenodd" clip-rule="evenodd" d="M61.3301 13.0743L59.6643 14.4761L65.1034 20.7151L66.7672 19.3133L61.3301 13.0743Z" fill="#937B3B"/>
<path fill-rule="evenodd" clip-rule="evenodd" d="M41.3443 29.9119L39.6808 31.3159L45.1286 37.5658L46.7922 36.1596L41.3443 29.9119Z" fill="#937B3B"/>
<path fill-rule="evenodd" clip-rule="evenodd" d="M59.1943 20.5646L57.5285 21.9683L60.1082 24.9287L61.7763 23.5228L59.1943 20.5646Z" fill="#937B3B"/>
<path fill-rule="evenodd" clip-rule="evenodd" d="M49.2035 28.9855L47.5354 30.3872L50.1196 33.3541L51.7854 31.9501L49.2035 28.9855Z" fill="#937B3B"/>
<path fill-rule="evenodd" clip-rule="evenodd" d="M51.335 21.4952L49.6736 22.897L55.115 29.1404L56.7808 27.7364L51.335 21.4952Z" fill="#937B3B"/>
<path fill-rule="evenodd" clip-rule="evenodd" d="M67.7925 0.020874H2.20569C0.999053 0.020874 0.0195007 0.995394 0.0195007 2.20084V15.2804C0.0195007 16.4836 0.998803 17.4603 2.20569 17.4603H67.7925C69.0014 17.4603 69.9787 16.4838 69.9787 15.2804V2.20084C69.9787 0.995144 68.9991 0.020874 67.7925 0.020874V0.020874ZM67.7925 52.339H2.20569C0.999053 52.339 0.0195007 53.3135 0.0195007 54.5167V67.5985C0.0195007 68.8017 0.998803 69.7785 2.20569 69.7785H67.7925C69.0014 69.7785 69.9787 68.802 69.9787 67.5985V54.5167C69.9787 53.3135 68.9991 52.339 67.7925 52.339V52.339Z" fill="#EFC75E"/>
<path fill-rule="evenodd" clip-rule="evenodd" d="M4.39163 8.74048H6.57783V0.020874H4.39163V8.74048V8.74048ZM10.9502 4.38055H13.1364V0.020874H10.9502V4.38055V4.38055ZM17.5085 8.74048H19.6947V0.020874H17.5085V8.74048V8.74048ZM24.0671 4.38055H26.2533V0.020874H24.0671V4.38055V4.38055ZM30.6257 8.74048H32.8119V0.020874H30.6257V8.74048V8.74048ZM37.184 4.38055H39.3702V0.020874H37.184V4.38055V4.38055ZM43.7426 8.74048H45.9288V0.020874H43.7426V8.74048V8.74048ZM50.3009 4.38055H52.4871V0.020874H50.3009V4.38055V4.38055ZM56.8595 8.74048H59.0457V0.020874H56.8595V8.74048V8.74048ZM63.4201 0.020874V4.3808H65.6063V0.020874H63.4201V0.020874ZM4.39163 69.7785H6.57783V61.0589H4.39163V69.7785V69.7785ZM10.9502 69.7785H13.1364V65.4186H10.9502V69.7785V69.7785ZM17.5085 69.7785H19.6947V61.0589H17.5085V69.7785V69.7785ZM24.0671 69.7785H26.2533V65.4186H24.0671V69.7785V69.7785ZM30.6257 69.7785H32.8119V61.0589H30.6257V69.7785V69.7785ZM37.184 69.7785H39.3702V65.4186H37.184V69.7785V69.7785ZM43.7426 69.7785H45.9288V61.0589H43.7426V69.7785V69.7785ZM50.3009 69.7785H52.4871V65.4186H50.3009V69.7785V69.7785ZM56.8595 69.7785H59.0457V61.0589H56.8595V69.7785V69.7785ZM63.4201 69.7785H65.6063V65.4186H63.4201V69.7785V69.7785Z" fill="#B39546"/>
</svg>
